<?xml version="1.0" standalone="no"?>
<!DOCTYPE svg PUBLIC "-//W3C//DTD SVG 20010904//EN"
 "http://www.w3.org/TR/2001/REC-SVG-20010904/DTD/svg10.dtd">
<svg version="1.0" xmlns="http://www.w3.org/2000/svg"
 width="2406.000000pt" height="883.000000pt" viewBox="0 0 2406.000000 883.000000"
 preserveAspectRatio="xMidYMid meet">

<g transform="translate(0.000000,883.000000) scale(0.100000,-0.100000)"
fill="#000000" stroke="none">
<path d="M18750 5199 c0 -318 -2 -360 -15 -355 -83 32 -385 42 -510 17 -244
-49 -452 -182 -586 -377 -50 -73 -108 -204 -136 -309 -25 -92 -27 -116 -27
-300 -1 -161 3 -216 18 -280 84 -363 307 -578 686 -661 70 -16 128 -19 325
-19 253 0 331 9 579 66 l96 22 0 1279 0 1278 -215 0 -215 0 0 -361z m-69 -697
l64 -17 3 -597 c2 -561 1 -596 -15 -603 -10 -3 -70 -11 -133 -16 -264 -22
-458 39 -560 175 -50 68 -65 99 -92 193 -30 105 -32 348 -5 466 55 234 206
382 427 417 75 12 233 3 311 -18z"/>
<path d="M5644 5529 c-310 -52 -520 -289 -1172 -1319 -335 -530 -433 -667
-615 -857 l-79 -82 -55 62 c-103 114 -321 325 -415 400 -167 134 -342 233
-509 287 -91 30 -296 73 -409 86 l-65 8 59 18 c33 10 115 30 183 45 l123 27 0
93 c0 69 -3 91 -12 88 -7 -2 -52 -15 -101 -30 -48 -14 -95 -29 -105 -32 -9 -4
8 20 39 53 96 102 208 265 307 444 l41 76 -36 138 -37 138 -19 -39 c-33 -65
-197 -343 -255 -433 -133 -207 -266 -355 -439 -489 l-81 -63 18 -66 c33 -116
99 -300 149 -411 100 -224 226 -409 385 -566 201 -198 384 -289 613 -302 192
-11 388 44 559 157 l31 20 224 -252 c446 -502 632 -658 849 -715 81 -21 264
-23 340 -4 92 22 229 94 318 166 117 95 241 236 448 510 499 661 592 779 823
1043 l134 154 -33 121 c-123 465 -288 877 -445 1112 -216 323 -472 462 -761
414z m294 -245 c230 -113 437 -457 648 -1074 35 -102 59 -186 55 -188 -30 -10
-357 136 -461 207 -30 20 -60 40 -66 44 -6 3 6 -54 25 -128 l36 -134 65 -30
c92 -41 142 -58 249 -85 l93 -23 -82 -22 c-194 -53 -457 -93 -687 -107 l-123
-7 0 -98 0 -99 68 0 c169 0 461 50 638 110 l89 30 -81 -82 c-154 -158 -262
-288 -529 -638 -302 -397 -413 -526 -532 -621 -150 -120 -292 -160 -445 -128
-130 28 -219 90 -429 299 -142 142 -536 573 -546 598 -3 7 32 52 79 100 166
172 342 414 576 787 198 316 485 748 594 894 114 152 289 331 369 378 78 47
149 64 243 59 66 -4 91 -10 154 -42z m-3575 -1339 c441 -84 736 -260 1114
-663 68 -73 123 -138 121 -144 -7 -20 -119 -77 -203 -104 -265 -84 -505 -4
-743 251 -135 145 -272 363 -366 583 -20 46 -36 86 -36 88 0 7 34 4 113 -11z"/>
<path d="M8475 4870 c-181 -20 -385 -83 -385 -119 0 -9 7 -74 15 -146 8 -71
15 -136 15 -142 0 -9 7 -10 26 -3 14 6 81 21 148 34 300 60 523 37 639 -64 61
-54 89 -122 95 -229 l5 -84 -29 6 c-68 15 -304 19 -407 8 -223 -25 -375 -89
-498 -211 -119 -117 -163 -231 -163 -415 0 -313 163 -498 504 -572 70 -15 128
-18 330 -18 263 1 345 10 566 62 l115 27 -4 675 c-3 613 -5 682 -21 735 -33
112 -77 187 -152 263 -86 87 -190 142 -329 173 -105 24 -346 34 -470 20z m543
-1073 c9 -6 12 -72 12 -271 l0 -264 -67 -13 c-38 -8 -129 -14 -203 -14 -112 0
-147 4 -205 22 -81 26 -136 67 -168 126 -32 60 -32 204 0 263 40 74 108 122
218 150 55 15 391 15 413 1z"/>
<path d="M12215 4874 c-16 -2 -66 -9 -110 -15 -94 -12 -208 -41 -278 -71 -48
-21 -49 -22 -44 -57 3 -20 11 -90 18 -157 l11 -121 63 18 c182 50 465 70 585
40 174 -43 260 -150 260 -323 l0 -69 -52 8 c-29 4 -134 8 -233 7 -143 -1 -198
-5 -271 -22 -281 -64 -460 -216 -518 -439 -20 -78 -21 -247 -1 -332 36 -152
129 -264 279 -336 165 -79 302 -100 596 -92 211 5 343 22 535 70 l90 22 0 645
c0 726 0 729 -75 885 -80 167 -231 274 -455 320 -77 16 -336 28 -400 19z m468
-1070 l37 -7 0 -267 0 -268 -67 -13 c-100 -20 -324 -18 -394 3 -126 39 -194
116 -206 230 -17 168 88 289 277 321 41 7 312 7 353 1z"/>
<path d="M14265 4873 c-189 -16 -379 -52 -527 -99 l-108 -35 0 -895 0 -894
220 0 220 0 0 759 0 759 43 10 c101 25 202 34 314 30 226 -9 319 -70 370 -243
15 -54 17 -125 21 -687 l3 -628 215 0 215 0 -3 683 c-4 763 -2 731 -79 894
-92 194 -288 311 -572 342 -90 10 -240 12 -332 4z"/>
<path d="M16135 4869 c-142 -18 -323 -64 -371 -97 -8 -5 -7 -48 4 -160 l16
-154 30 6 c17 3 69 14 116 25 47 11 142 26 212 32 268 25 441 -30 513 -162 25
-46 30 -67 33 -148 l5 -94 -29 6 c-16 4 -90 9 -164 13 -454 23 -767 -129 -871
-422 -15 -41 -23 -94 -26 -174 -9 -197 39 -334 155 -442 154 -142 364 -195
734 -185 209 5 353 24 536 70 l87 22 0 650 c0 587 -2 657 -18 725 -61 262
-227 415 -512 475 -96 20 -338 28 -450 14z m518 -1065 l37 -7 0 -267 0 -267
-57 -12 c-93 -19 -251 -25 -332 -12 -99 16 -163 45 -209 95 -50 54 -67 103
-66 191 2 142 81 230 241 269 60 15 316 21 386 10z"/>
<path d="M20271 4870 c-317 -45 -561 -250 -667 -562 -47 -139 -58 -221 -59
-423 0 -147 4 -209 18 -275 83 -386 331 -619 728 -686 80 -13 139 -15 283 -11
194 6 298 23 447 72 81 27 81 27 76 59 -3 17 -13 90 -23 161 l-17 131 -86 -23
c-152 -41 -291 -56 -451 -50 -148 5 -214 18 -295 59 -133 67 -215 195 -233
364 l-8 74 618 0 618 0 0 118 c0 159 -16 321 -40 417 -24 99 -94 241 -155 317
-87 111 -227 199 -375 239 -87 23 -282 33 -379 19z m280 -349 c138 -53 233
-201 241 -376 l3 -60 -402 -3 -403 -2 0 33 c0 45 26 141 55 205 48 105 163
198 275 222 62 13 170 4 231 -19z"/>
<path d="M9660 4823 c1 -5 160 -426 354 -938 l352 -930 220 -3 220 -2 219 577
c120 318 280 741 356 941 l137 362 -227 0 -226 0 -128 -398 c-282 -872 -339
-1044 -347 -1036 -6 7 -279 857 -432 1342 l-29 92 -234 0 c-129 0 -235 -3
-235 -7z"/>
</g>
</svg>
