<svg id="svg" version="1.1" xmlns="http://www.w3.org/2000/svg" xmlns:xlink="http://www.w3.org/1999/xlink" width="400" height="146.79966749792186" viewBox="0, 0, 400,146.79966749792186"><g id="svgg"><path id="path0" d="M67.397 32.991 C 62.748 33.721,58.580 37.544,54.126 45.167 C 52.566 47.835,52.240 48.593,52.461 49.035 C 52.692 49.497,53.667 52.907,53.667 53.253 C 53.667 53.869,53.979 53.505,54.887 51.833 C 56.788 48.332,59.897 43.194,60.332 42.833 C 60.387 42.788,60.616 42.487,60.839 42.167 C 64.886 36.355,70.107 35.068,73.833 38.964 C 75.343 40.542,76.000 41.309,76.000 41.493 C 76.000 41.588,76.056 41.667,76.125 41.668 C 76.194 41.668,76.410 41.912,76.605 42.209 C 78.305 44.800,79.009 45.959,80.376 48.418 C 82.069 51.464,85.220 57.464,85.739 58.632 C 86.130 59.512,86.182 59.498,87.401 58.207 L 88.386 57.165 88.156 56.207 C 88.029 55.681,87.937 55.137,87.951 55.000 C 87.965 54.862,87.689 54.136,87.338 53.387 C 86.987 52.637,86.742 51.980,86.794 51.928 C 86.846 51.876,86.801 51.833,86.694 51.833 C 86.588 51.833,86.515 51.777,86.533 51.708 C 86.589 51.496,86.319 50.833,86.176 50.833 C 86.101 50.833,85.943 50.590,85.824 50.292 C 84.870 47.911,80.191 40.370,78.139 37.909 C 74.897 34.020,71.309 32.377,67.397 32.991 M88.873 62.209 C 88.485 62.605,88.167 63.022,88.167 63.136 C 88.167 63.541,90.673 67.997,91.270 68.653 C 91.624 69.041,91.065 66.666,89.617 61.620 C 89.597 61.548,89.262 61.813,88.873 62.209 M59.833 73.990 C 60.040 74.110,60.069 74.454,60.000 75.970 L 59.917 77.803 60.583 78.142 C 60.950 78.329,61.663 78.651,62.167 78.858 C 63.061 79.225,66.619 81.011,68.877 82.227 C 69.497 82.560,70.081 82.833,70.174 82.833 C 70.410 82.833,72.348 79.781,72.202 79.638 C 71.864 79.309,63.017 74.979,62.048 74.669 C 61.426 74.470,60.804 74.263,60.667 74.210 C 60.529 74.156,60.367 74.106,60.306 74.098 C 60.244 74.090,60.138 74.027,60.069 73.958 C 60.001 73.890,59.863 73.836,59.764 73.838 C 59.665 73.841,59.696 73.909,59.833 73.990 M74.704 82.786 C 73.462 84.762,73.328 84.568,76.667 85.643 C 79.723 86.627,80.937 86.909,80.656 86.570 C 80.536 86.426,80.490 85.723,80.526 84.599 L 80.583 82.852 79.848 82.666 C 79.237 82.513,78.409 82.210,75.906 81.224 C 75.808 81.186,75.267 81.889,74.704 82.786 " stroke="none" fill="#fcb507" fill-rule="evenodd"></path><path id="path1" d="M92.675 54.844 C 91.414 55.174,89.167 56.362,89.167 56.699 C 89.167 56.932,86.480 59.496,86.234 59.498 C 85.911 59.501,85.543 60.069,85.530 60.583 C 85.523 60.858,85.214 62.489,84.842 64.206 C 83.936 68.397,83.951 68.681,85.000 67.127 C 85.321 66.652,86.117 65.585,86.768 64.756 C 87.420 63.928,88.003 63.092,88.063 62.900 C 88.185 62.512,90.533 60.167,90.799 60.167 C 90.891 60.167,91.348 59.910,91.814 59.596 C 96.639 56.349,101.361 59.104,105.616 67.648 C 107.012 70.452,106.901 70.484,107.582 67.083 C 107.820 65.892,108.087 64.743,108.176 64.531 C 108.292 64.252,108.284 64.178,108.146 64.263 C 108.030 64.335,107.989 64.291,108.041 64.148 C 108.303 63.427,104.698 58.628,102.663 56.987 C 99.861 54.729,96.153 53.933,92.675 54.844 M84.573 61.208 L 84.083 61.750 84.625 61.260 C 84.923 60.991,85.167 60.748,85.167 60.719 C 85.167 60.590,85.029 60.703,84.573 61.208 M54.440 84.201 C 54.636 85.025,55.283 89.423,55.225 89.529 C 55.145 89.674,56.938 91.611,59.954 94.638 C 61.263 95.951,62.333 97.100,62.333 97.191 C 62.333 97.332,66.729 102.431,67.269 102.917 C 67.371 103.008,68.017 103.758,68.704 104.583 C 71.499 107.936,75.355 111.315,77.750 112.508 C 81.979 114.616,88.001 113.774,91.250 110.621 C 91.342 110.532,91.247 110.547,91.039 110.653 C 90.572 110.894,90.586 110.934,90.289 108.636 C 90.034 106.670,90.047 106.612,90.980 105.587 C 91.312 105.223,90.833 105.640,89.916 106.515 C 85.472 110.753,81.486 110.995,77.079 107.296 C 75.111 105.644,68.100 98.424,66.917 96.831 C 66.376 96.103,65.345 95.000,65.205 95.000 C 65.031 95.000,62.946 92.546,62.807 92.178 C 62.715 91.933,60.876 89.924,58.500 87.471 C 56.658 85.570,54.318 83.684,54.440 84.201 " stroke="none" fill="#d20e27" fill-rule="evenodd"></path><path id="path2" d="M311.569 54.153 C 311.531 54.191,311.500 56.863,311.500 60.091 L 311.500 65.959 310.375 65.713 C 303.620 64.237,296.363 67.000,292.863 72.382 C 288.513 79.072,289.527 90.281,294.882 94.696 C 295.359 95.090,295.790 95.466,295.839 95.532 C 295.972 95.713,298.130 96.874,299.122 97.299 C 301.834 98.462,308.639 98.796,313.832 98.021 C 316.523 97.620,318.778 97.122,319.024 96.876 C 319.104 96.796,319.149 87.220,319.126 75.443 L 319.083 54.154 315.361 54.118 C 313.314 54.099,311.608 54.115,311.569 54.153 M87.410 58.375 L 86.583 59.250 87.458 58.423 C 88.271 57.654,88.410 57.500,88.285 57.500 C 88.259 57.500,87.865 57.894,87.410 58.375 M46.167 60.542 C 41.438 69.514,37.477 74.592,32.863 77.601 C 32.751 77.674,34.053 81.823,34.743 83.589 C 40.162 97.470,50.313 103.511,60.087 98.670 C 62.799 97.327,62.800 97.742,60.082 94.700 C 59.926 94.526,59.649 94.612,58.653 95.147 C 52.459 98.467,46.651 96.172,41.490 88.365 C 39.913 85.980,37.646 81.466,37.898 81.214 C 38.099 81.012,43.913 82.401,44.706 82.840 C 44.865 82.928,45.090 83.000,45.206 83.001 C 45.322 83.002,45.634 83.115,45.900 83.254 C 46.546 83.591,46.539 83.623,46.266 81.670 C 46.135 80.728,46.060 79.870,46.101 79.764 C 46.184 79.548,43.284 78.783,41.083 78.440 L 39.750 78.233 41.583 77.790 C 42.592 77.546,44.167 77.228,45.083 77.084 C 46.000 76.939,47.007 76.780,47.322 76.730 C 47.636 76.681,47.811 76.589,47.709 76.526 C 47.470 76.379,47.354 73.195,47.583 73.088 C 48.166 72.817,42.939 73.940,42.096 74.267 C 41.908 74.340,42.160 73.938,42.708 73.292 C 43.732 72.085,45.147 70.021,46.450 67.833 C 47.763 65.628,49.183 62.945,48.922 63.162 C 48.728 63.323,48.653 63.231,48.498 62.637 C 48.395 62.241,48.118 61.242,47.884 60.417 C 47.650 59.592,47.459 58.748,47.461 58.542 C 47.466 58.040,47.570 57.879,46.167 60.542 M141.385 65.520 C 138.712 65.740,135.525 66.540,134.585 67.228 C 134.272 67.457,134.548 72.437,134.892 72.781 C 134.953 72.842,135.846 72.694,136.877 72.453 C 145.095 70.525,149.833 72.204,149.833 77.043 C 149.833 78.026,149.833 78.026,149.375 77.939 C 145.750 77.251,140.304 77.914,137.228 79.417 C 129.215 83.335,130.099 95.467,138.561 97.693 C 143.165 98.904,150.918 98.673,156.708 97.151 L 157.333 96.987 157.333 86.258 C 157.333 74.808,157.301 74.258,156.490 72.083 C 154.622 67.074,149.505 64.851,141.385 65.520 M202.833 65.502 C 200.084 65.746,196.811 66.559,195.956 67.208 C 195.671 67.425,196.016 72.361,196.342 72.726 C 196.412 72.805,197.283 72.675,198.276 72.438 C 206.254 70.533,211.167 72.187,211.167 76.778 L 211.167 78.026 210.708 77.939 C 208.537 77.522,203.889 77.728,201.417 78.349 C 195.180 79.918,191.927 85.265,193.490 91.377 C 194.706 96.130,198.472 98.233,206.167 98.453 C 209.014 98.535,209.326 98.513,214.833 97.842 C 215.429 97.769,216.535 97.542,217.292 97.337 L 218.667 96.963 218.664 86.023 C 218.661 74.063,218.655 73.984,217.676 71.631 C 215.760 67.030,210.425 64.827,202.833 65.502 M237.917 65.436 C 234.266 65.709,230.677 66.344,228.081 67.176 L 226.500 67.682 226.500 82.758 L 226.500 97.833 230.250 97.833 L 234.000 97.833 234.000 85.261 C 234.000 73.432,234.017 72.684,234.292 72.603 C 238.694 71.310,243.387 71.927,244.918 74.002 C 246.064 75.556,246.071 75.628,246.130 87.295 L 246.183 97.840 249.966 97.795 L 253.750 97.750 253.750 86.750 C 253.750 73.766,253.685 73.194,251.897 70.381 C 249.635 66.821,244.354 64.953,237.917 65.436 M269.750 65.443 C 266.024 65.745,262.285 66.646,261.826 67.353 C 261.717 67.519,262.243 72.632,262.382 72.771 C 262.435 72.824,263.290 72.677,264.281 72.444 C 272.396 70.538,276.877 72.025,277.277 76.757 L 277.385 78.028 276.567 77.899 C 272.321 77.228,266.658 78.125,263.725 79.935 C 256.888 84.151,257.821 94.872,265.250 97.465 C 269.279 98.871,278.721 98.733,283.833 97.193 L 284.750 96.917 284.799 87.000 C 284.860 74.756,284.766 73.701,283.373 70.917 C 281.423 67.020,276.199 64.921,269.750 65.443 M337.417 65.510 C 328.562 66.522,323.462 74.671,324.907 85.500 C 325.736 91.715,330.077 96.999,335.035 97.830 C 335.520 97.911,336.329 98.074,336.833 98.193 C 339.918 98.920,349.611 97.988,350.878 96.843 C 350.983 96.748,350.625 93.741,350.249 91.562 L 350.159 91.040 348.417 91.508 C 339.418 93.922,333.286 91.577,332.592 85.458 L 332.484 84.500 342.676 84.500 L 352.868 84.500 352.792 80.625 C 352.582 69.875,347.025 64.413,337.417 65.510 M160.333 66.380 C 160.333 66.580,164.724 78.238,169.668 91.167 C 170.878 94.329,171.942 97.124,172.034 97.378 L 172.201 97.839 176.051 97.795 L 179.901 97.750 180.537 96.083 C 180.887 95.167,181.656 93.142,182.246 91.583 C 183.159 89.171,184.778 84.919,185.832 82.167 C 185.990 81.754,187.135 78.717,188.378 75.417 C 189.620 72.117,190.869 68.818,191.152 68.087 C 191.965 65.986,192.285 66.167,187.758 66.167 L 183.849 66.167 181.938 72.042 C 180.887 75.273,179.188 80.504,178.163 83.667 C 177.138 86.829,176.249 89.471,176.188 89.536 C 176.082 89.650,175.389 87.537,170.640 72.628 L 168.583 66.173 164.458 66.170 C 161.219 66.167,160.333 66.212,160.333 66.380 M78.208 70.453 C 78.094 70.494,78.000 70.603,78.000 70.694 C 78.000 70.786,77.747 71.173,77.437 71.555 C 77.128 71.937,76.742 72.512,76.580 72.833 C 76.417 73.154,75.897 73.979,75.424 74.667 C 73.996 76.742,72.333 79.429,72.333 79.662 C 72.333 79.948,70.512 82.833,70.331 82.833 C 70.167 82.833,68.667 84.944,68.667 85.175 C 68.667 85.262,68.608 85.333,68.536 85.333 C 68.464 85.333,68.269 85.564,68.102 85.846 C 67.632 86.643,65.352 89.445,64.010 90.877 L 62.797 92.171 63.224 92.710 C 64.691 94.564,65.107 94.922,65.522 94.687 C 66.696 94.020,73.667 85.156,73.667 84.329 C 73.667 84.221,74.228 83.315,74.914 82.316 C 75.600 81.317,76.119 80.500,76.069 80.500 C 76.018 80.500,76.091 80.385,76.232 80.245 C 76.372 80.104,76.536 79.710,76.595 79.370 C 76.655 79.029,77.099 76.875,77.583 74.583 C 78.066 72.292,78.452 70.408,78.439 70.398 C 78.427 70.387,78.323 70.412,78.208 70.453 M341.897 71.978 C 344.044 73.035,345.500 75.592,345.500 78.305 L 345.500 78.667 338.998 78.667 L 332.495 78.667 332.588 78.125 C 333.132 74.959,334.310 73.032,336.335 71.999 C 338.000 71.150,340.198 71.141,341.897 71.978 M111.127 71.708 C 110.503 73.432,109.795 78.078,110.039 78.843 L 110.307 79.681 109.945 79.567 C 106.413 78.451,103.070 76.562,100.264 74.097 C 99.631 73.540,99.198 73.234,99.303 73.417 C 99.574 73.889,100.833 78.699,100.729 78.867 C 100.682 78.943,100.555 78.960,100.447 78.905 C 100.339 78.850,100.438 78.962,100.667 79.155 C 101.426 79.793,104.324 81.152,106.050 81.678 C 106.985 81.964,107.892 82.250,108.065 82.316 C 109.410 82.821,98.940 84.321,93.888 84.346 C 91.916 84.356,91.366 84.402,91.708 84.527 C 92.364 84.767,92.439 87.924,91.792 88.049 C 91.585 88.089,92.467 88.131,93.750 88.144 C 97.707 88.182,101.314 87.733,104.873 86.759 L 106.838 86.221 105.627 87.496 C 103.802 89.418,103.254 90.050,102.915 90.625 C 102.745 90.913,102.550 91.114,102.483 91.073 C 102.416 91.031,102.311 91.223,102.250 91.499 C 102.190 91.774,102.034 92.000,101.903 92.000 C 101.625 92.000,101.612 92.072,101.824 92.461 C 102.027 92.831,102.530 96.483,102.407 96.683 C 102.356 96.766,102.362 96.833,102.421 96.833 C 102.537 96.833,103.667 95.706,103.667 95.590 C 103.667 95.360,109.749 87.941,112.818 84.427 C 113.835 83.263,114.666 82.259,114.666 82.197 C 114.662 81.357,111.587 71.500,111.329 71.500 C 111.259 71.500,111.168 71.594,111.127 71.708 M309.186 71.830 C 309.679 71.920,310.403 72.080,310.793 72.186 L 311.503 72.377 311.460 82.135 L 311.417 91.893 310.917 92.049 C 309.690 92.433,305.171 92.264,303.789 91.784 C 299.794 90.395,298.244 87.700,298.256 82.167 C 298.273 74.675,302.558 70.623,309.186 71.830 M149.458 83.773 L 149.833 83.872 149.833 88.085 C 149.833 91.545,149.792 92.314,149.600 92.387 C 148.154 92.942,143.693 92.934,142.135 92.373 C 138.143 90.937,138.091 85.646,142.053 84.186 C 143.711 83.576,147.843 83.345,149.458 83.773 M210.934 83.780 C 211.133 83.856,211.165 84.566,211.128 88.144 L 211.083 92.417 209.833 92.635 C 207.938 92.965,204.683 92.812,203.430 92.332 C 199.324 90.762,199.542 85.416,203.765 84.086 C 205.401 83.571,209.890 83.379,210.934 83.780 M276.958 83.776 L 277.333 83.869 277.333 88.084 C 277.333 91.544,277.292 92.314,277.100 92.387 C 275.594 92.965,271.021 92.934,269.445 92.335 C 265.460 90.821,265.576 85.680,269.629 84.164 C 271.197 83.577,275.285 83.361,276.958 83.776 " stroke="none" fill="#fb5b04" fill-rule="evenodd"></path><path id="path3" d="M49.844 53.442 C 48.534 56.064,47.462 58.368,47.462 58.562 C 47.462 58.923,48.593 63.149,48.725 63.281 C 48.932 63.488,53.731 54.496,53.702 53.955 C 53.694 53.792,53.746 53.696,53.819 53.741 C 53.892 53.786,54.038 53.619,54.145 53.370 C 54.314 52.975,54.309 52.954,54.109 53.208 C 53.840 53.551,53.665 53.584,53.670 53.292 C 53.675 52.924,52.614 49.261,52.416 48.963 C 52.256 48.722,51.848 49.432,49.844 53.442 M87.658 54.062 C 87.829 54.463,87.960 54.894,87.948 55.021 C 87.935 55.147,88.030 55.685,88.158 56.216 L 88.390 57.182 87.487 58.119 C 86.633 59.005,86.654 58.993,87.875 57.907 C 88.585 57.275,89.167 56.735,89.167 56.709 C 89.167 56.682,88.791 55.912,88.332 54.997 C 87.471 53.282,87.106 52.776,87.658 54.062 M89.515 61.458 C 88.904 62.077,88.670 62.342,88.995 62.047 L 89.587 61.511 90.556 65.029 C 91.329 67.835,91.481 68.576,91.304 68.688 C 91.099 68.818,91.234 68.905,91.554 68.849 C 91.630 68.836,91.643 68.904,91.583 69.000 C 91.470 69.183,92.323 70.666,92.542 70.666 C 92.610 70.667,92.667 70.746,92.667 70.843 C 92.667 72.003,100.107 79.460,100.686 78.881 C 100.758 78.808,100.497 77.558,100.106 76.101 L 99.395 73.453 98.113 71.905 C 96.062 69.429,93.073 64.703,91.394 61.278 C 90.818 60.104,90.858 60.100,89.515 61.458 M49.563 72.839 C 47.253 73.029,47.408 72.882,47.469 74.831 C 47.505 75.961,47.586 76.507,47.719 76.520 C 47.828 76.531,49.417 76.556,51.250 76.576 C 54.953 76.616,56.178 76.799,59.035 77.744 C 59.978 78.056,60.604 78.204,60.426 78.072 C 60.249 77.941,60.061 77.833,60.010 77.834 C 59.833 77.834,60.024 74.422,60.215 74.169 C 60.320 74.030,60.342 73.970,60.265 74.035 C 60.188 74.100,59.928 74.053,59.687 73.931 C 58.586 73.370,53.214 72.565,51.417 72.691 C 51.233 72.704,50.399 72.770,49.563 72.839 M80.614 83.064 C 80.409 83.597,80.495 86.396,80.725 86.699 C 81.217 87.346,89.529 88.416,91.492 88.085 L 92.167 87.971 92.167 86.332 L 92.167 84.693 91.625 84.528 C 91.327 84.437,90.227 84.317,89.181 84.260 C 86.883 84.136,84.221 83.776,82.420 83.345 C 81.689 83.171,81.039 83.059,80.976 83.098 C 80.913 83.137,80.832 83.078,80.795 82.968 C 80.754 82.844,80.684 82.881,80.614 83.064 M73.923 83.764 C 73.767 84.002,73.669 84.224,73.704 84.259 C 73.739 84.294,73.899 84.100,74.060 83.828 C 74.419 83.220,74.312 83.170,73.923 83.764 " stroke="none" fill="#fc8807" fill-rule="evenodd"></path><path id="path4" d="M313.542 54.124 C 314.527 54.154,316.140 54.154,317.125 54.124 C 318.110 54.095,317.304 54.071,315.333 54.071 C 313.362 54.071,312.556 54.095,313.542 54.124 M85.202 60.435 C 85.084 60.562,85.032 60.667,85.088 60.667 C 85.171 60.667,84.493 61.503,83.250 62.934 C 83.158 63.039,82.971 63.292,82.833 63.495 C 82.696 63.698,82.415 64.064,82.209 64.307 C 82.002 64.551,81.834 64.801,81.834 64.863 C 81.833 64.925,81.729 65.080,81.602 65.208 C 81.474 65.335,81.029 65.960,80.612 66.595 C 80.195 67.230,79.701 67.938,79.514 68.167 C 79.327 68.396,79.172 68.677,79.170 68.792 C 79.168 68.906,79.092 69.000,79.000 69.000 C 78.908 69.000,78.832 69.094,78.830 69.208 C 78.828 69.323,78.679 69.604,78.500 69.833 C 78.135 70.300,78.066 70.582,78.362 70.399 C 78.486 70.322,78.524 70.364,78.467 70.514 C 78.418 70.644,77.990 72.625,77.518 74.917 C 77.045 77.208,76.590 79.335,76.506 79.643 C 76.302 80.390,76.379 80.295,77.832 77.987 C 80.573 73.632,84.065 68.247,84.178 68.200 C 84.244 68.173,84.260 68.007,84.215 67.832 C 84.150 67.586,85.296 61.622,85.578 60.735 C 85.686 60.394,85.429 60.190,85.202 60.435 M89.246 61.542 L 88.083 62.750 89.292 61.588 C 89.956 60.949,90.500 60.405,90.500 60.379 C 90.500 60.257,90.325 60.419,89.246 61.542 M108.041 64.182 C 108.131 64.434,107.152 69.452,106.949 69.782 C 106.850 69.941,106.931 70.204,107.817 72.583 C 108.090 73.317,108.634 74.872,109.026 76.039 L 109.738 78.160 110.432 74.895 C 110.813 73.098,111.201 71.581,111.294 71.523 C 111.506 71.390,110.005 67.651,108.910 65.583 C 108.123 64.096,107.859 63.671,108.041 64.182 M275.500 73.052 C 275.500 73.081,275.744 73.325,276.042 73.594 L 276.583 74.083 276.094 73.542 C 275.638 73.037,275.500 72.923,275.500 73.052 M46.112 79.736 C 46.065 79.858,46.134 80.723,46.265 81.659 C 46.396 82.595,46.467 83.419,46.423 83.491 C 46.378 83.562,46.657 83.762,47.041 83.935 C 49.048 84.839,52.619 87.280,54.079 88.745 C 54.948 89.619,55.597 90.150,55.414 89.841 C 55.336 89.708,55.250 89.408,55.224 89.174 C 55.162 88.626,54.545 84.673,54.461 84.292 C 54.384 83.941,53.940 83.512,53.208 83.081 C 52.910 82.905,52.667 82.703,52.667 82.631 C 52.667 82.559,52.593 82.500,52.503 82.500 C 52.413 82.500,51.913 82.227,51.391 81.893 C 49.575 80.732,46.251 79.373,46.112 79.736 M59.833 88.917 C 60.144 89.237,60.436 89.500,60.482 89.500 C 60.528 89.500,60.311 89.237,60.000 88.917 C 59.689 88.596,59.397 88.333,59.351 88.333 C 59.305 88.333,59.522 88.596,59.833 88.917 M101.917 91.667 C 101.663 91.947,101.656 92.000,101.871 92.000 C 102.012 92.000,102.167 91.850,102.215 91.667 C 102.263 91.483,102.283 91.333,102.260 91.333 C 102.237 91.333,102.083 91.483,101.917 91.667 M99.905 94.276 C 98.521 96.088,95.382 100.115,94.832 100.785 C 94.741 100.895,94.667 101.063,94.667 101.158 C 94.667 101.253,94.517 101.424,94.333 101.539 C 94.150 101.653,94.000 101.839,94.000 101.951 C 94.000 102.063,93.850 102.235,93.667 102.333 C 93.483 102.431,93.333 102.613,93.333 102.737 C 93.333 102.860,93.146 103.085,92.917 103.235 C 92.688 103.385,92.500 103.615,92.500 103.746 C 92.500 103.876,92.401 104.043,92.279 104.117 C 92.158 104.190,92.010 104.382,91.950 104.543 C 91.891 104.704,91.773 104.817,91.688 104.793 C 91.603 104.769,91.523 104.825,91.510 104.917 C 91.497 105.008,91.237 105.346,90.931 105.667 C 90.626 105.987,90.306 106.385,90.219 106.550 C 90.004 106.958,90.464 110.513,90.768 110.794 C 90.893 110.909,90.962 110.955,90.920 110.896 C 90.878 110.837,91.160 110.577,91.547 110.320 C 92.977 109.366,95.269 106.734,99.064 101.687 C 101.320 98.687,101.956 97.867,102.801 96.870 C 103.396 96.168,103.603 95.683,103.048 96.292 C 102.595 96.788,102.187 97.038,102.405 96.686 C 102.555 96.444,101.970 92.602,101.746 92.359 C 101.578 92.177,101.239 92.529,99.905 94.276 M195.500 95.250 C 195.811 95.571,196.103 95.833,196.149 95.833 C 196.195 95.833,195.978 95.571,195.667 95.250 C 195.356 94.929,195.064 94.667,195.018 94.667 C 194.972 94.667,195.189 94.929,195.500 95.250 M71.000 101.385 C 71.000 101.414,71.244 101.658,71.542 101.927 L 72.083 102.417 71.594 101.875 C 71.138 101.370,71.000 101.257,71.000 101.385 " stroke="none" fill="#e93412" fill-rule="evenodd"></path></g></svg>